<?xml version="1.0" encoding="utf-8"?>
<!-- Generator: Adobe Illustrator 19.0.0, SVG Export Plug-In . SVG Version: 6.00 Build 0)  -->
<svg version="1.1" id="layer" xmlns="http://www.w3.org/2000/svg" xmlns:xlink="http://www.w3.org/1999/xlink" x="0px" y="0px"
	 viewBox="-153 -46 652 652" style="enable-background:new -153 -46 652 652;" xml:space="preserve">
<style type="text/css">
	.st0{fill:#273691;}
	.st1{fill:#FEBD3B;}
</style>
<g>
	<g>
		<g>
			<path class="st0" d="M125,183.5L91.7,384.6H45.9l33.3-201.1C79.2,183.5,125,183.5,125,183.5z"/>
			<path class="st0" d="M300.8,259.3l-45.7,2.2c0.3-3.1,0.4-5.4,0.4-7.1c0-10.2-2.5-18.8-7.6-25.8c-5-7-12.6-10.6-22.9-10.6
				c-16.7,0-28.6,10.2-35.8,30.4c-7.2,20.2-10.8,40.2-10.8,59.6c0,14.4,3.1,25,9.2,31.6c6.1,6.6,14,10,23.6,10
				c19.5,0,32.9-12.4,40.2-37.2l41,7.2c-15.2,45.8-43.4,68.7-84.7,68.7c-25.6,0-45.1-8.5-58.6-25.5c-13.5-17-20.2-37.6-20.2-61.7
				c0-32.1,8.8-60.3,26.4-84.8c17.6-24.4,41-36.6,70.1-36.6c21.1,0,38.8,6.5,52.9,19.4C292.5,212.1,299.9,232.2,300.8,259.3z"/>
			<path class="st0" d="M468.3,183.5l-6.3,38.2h-89.3l-7.3,44.8h75.9l-6.3,38.2h-74.4l-13.1,79.8h-47.6l33.3-201.1L468.3,183.5
				L468.3,183.5z"/>
		</g>
	</g>
	<g>
		<path class="st1" d="M-111.7,376.7c0.4,0.3,0.9,0.6,1.3,0.9c15.8-25.9,35.6-54.5,60.3-83.7c24.5-29,54.1-59,90.4-88.5
			c0,0-24.7,14.8-57.6,41.1c-32.3,25.9-73,63.2-109.2,111.6C-123.1,365.7-118.2,372.1-111.7,376.7"/>
		<path class="st1" d="M-130.2,311.3c-1.9,11.5-2.1,22.4-0.5,32.1c19.6-22.3,43.4-46.7,71.3-70.3c14.1-11.9,29.3-23.7,45.7-34.9
			c16.6-11.4,34.6-22.5,54-32.7c0,0-23.2,7.2-56.4,24.5c-16.1,8.4-34.6,19.1-54.1,32.6C-89.3,275.7-109.6,291.8-130.2,311.3"/>
		<path class="st1" d="M24.4,164.3c-9.5-2.4-20-1.9-31,0.9c-10.7,2.7-21.9,7.8-32.9,14.6c-21.7,13.4-43.4,34.5-60.8,60.5
			c-2.9,4.3-5.6,8.8-8.2,13.2c-7.3,12.8-13,25.8-16.8,38.3c20.6-16.6,45-34.1,72.1-49.2c13.8-7.8,28.5-15,43.9-21.2
			c15.7-6.4,32.3-11.8,49.8-15.9c0,0-16-0.9-41.6,4.1c-12.4,2.4-26.9,6.1-42.9,12c-15.6,5.7-32.7,13.4-50.9,23.8
			c0.5-0.7,0.9-1.4,1.3-2.1c15.4-23.1,34.7-41.8,54-53.7c9.8-6,19.7-10.4,29.1-12.7c9.6-2.3,18.9-2.6,27.2-0.3
			c17.2,4.7,27.2,19.5,28.8,40.3c0.9,10.8-0.5,23.1-4.3,36.2c-3.8,13.4-10,27.7-18.8,41.9c-22.3,36.4-54,62.5-82.6,71.4
			c9.8-24,22.5-49.8,39-77C-5,262.6,15,234.6,40.2,205.4c0,0-22,19.6-49.7,50.8C-23.5,272-38.9,290.8-54,311.9
			c-15.3,21.3-30.4,45.3-43.5,71.4c7.2,1.8,15,1.9,22.3,1.1c7.1-0.8,14.4-3.3,21.1-5.9c6.1-2.5,11.9-5.4,17.5-8.7
			c6.1-3.6,11.9-7.6,17.5-12c5.9-4.6,11.6-9.7,17-15c5.7-5.6,11-11.5,16-17.7c5.3-6.5,10.2-13.2,14.6-20.2c1.2-1.8,2.3-3.7,3.5-5.5
			c10-16.5,17.1-32.9,21.4-48.4c4.1-15.1,5.6-29.2,4.5-41.4c-1.1-11.9-4.7-22-10.5-29.8C42,172,34.2,166.8,24.4,164.3"/>
	</g>
</g>
</svg>
